<?xml version="1.0" encoding="UTF-8"?>
<svg id="Layer_1" data-name="Layer 1" xmlns="http://www.w3.org/2000/svg" version="1.1" viewBox="0 0 840 230">
  <defs>
    <style>
      .cls-1 {
        fill: #004dca;
        stroke-width: 0px;
      }
    </style>
  </defs>
  <polygon class="cls-1" points="104.9 162.1 103.1 162.1 58.2 15.9 6 15.9 73.1 214.1 134.9 214.1 202.1 15.9 149.8 15.9 104.9 162.1"/>
  <polygon class="cls-1" points="223.2 214.1 360.5 214.1 360.5 176.1 269.7 176.1 269.7 133.9 353.4 133.9 353.4 96 269.7 96 269.7 53.9 360.5 53.9 360.5 15.9 223.2 15.9 223.2 214.1"/>
  <polygon class="cls-1" points="511.7 132.1 509.9 132.1 430.5 15.9 390.1 15.9 390.1 214.1 436.6 214.1 436.6 97.7 438.1 97.7 518.4 214.1 558.1 214.1 558.1 15.9 511.7 15.9 511.7 132.1"/>
  <path class="cls-1" d="M712.9,27.6c-14.7-7.8-32.1-11.8-52.2-11.8h-72.6v198.3h72.6c20.1,0,37.5-4,52.2-11.9,14.7-7.9,26-19.3,33.8-34.2,7.8-14.9,11.8-32.5,11.8-53s-3.9-38.2-11.8-53.1c-7.9-15-19.1-26.4-33.8-34.2ZM705.7,149.2c-4,8.7-9.8,15-17.6,19-7.8,4-17.5,6-29.2,6h-24.2V55.7h23.8c11.8,0,21.6,2,29.4,5.9,7.8,3.9,13.7,10.3,17.7,19,4,8.8,6,20.2,6,34.4s-2,25.6-6,34.2Z"/>
  <rect class="cls-1" x="786.2" y="15.9" width="46.6" height="198.3"/>
</svg>