<?xml version="1.0" encoding="utf-8"?>
<!-- Generator: Adobe Illustrator 27.0.0, SVG Export Plug-In . SVG Version: 6.00 Build 0)  -->
<svg version="1.1" id="Layer_1" xmlns="http://www.w3.org/2000/svg" xmlns:xlink="http://www.w3.org/1999/xlink" x="0px" y="0px"
	 viewBox="0 0 100 100" style="enable-background:new 0 0 100 100;" xml:space="preserve">
<style type="text/css">
	.st0{fill:#FFFFFF;}
	.st1{opacity:0.91;fill:#004DCA;}
	.st2{fill:#004DCA;}
</style>
<g>
	<g>
		<g>
			
				<g id="_x38_8_x2C__Customization_x2C__Report_x2C__Chart_x2C__Data_x2C__Pie_00000149368665871254517140000003957295543123843498_">
				<g>
					<path id="XMLID_00000067947611114046714480000010749348348905082265_" class="st0" d="M29.7,13.8c-1.8,0-3.4,1.4-3.4,3.4
						c0,1.8,1.4,3.4,3.4,3.4c1.8,0,3.4-1.4,3.4-3.4S31.5,13.8,29.7,13.8z M43.2,13.8c-1.8,0-3.4,1.4-3.4,3.4c0,1.8,1.4,3.4,3.4,3.4
						c1.8,0,3.4-1.4,3.4-3.4S45,13.8,43.2,13.8z M56.8,13.8c-1.8,0-3.4,1.4-3.4,3.4c0,1.8,1.4,3.4,3.4,3.4c2,0,3.4-1.4,3.4-3.4
						S58.6,13.8,56.8,13.8z M70.3,13.8c-1.8,0-3.4,1.4-3.4,3.4c0,1.8,1.4,3.4,3.4,3.4c2,0,3.4-1.4,3.4-3.4S72.1,13.8,70.3,13.8z
						 M82.6,9.3V94H17.2V9.3C23.9,9.3,73.8,9.3,82.6,9.3z"/>
					<path id="XMLID_00000068674607607894729180000013390999504597833132_" class="st0" d="M66.9,46.7h-17v-17
						C59.3,29.7,66.9,37.3,66.9,46.7z"/>
					<path id="XMLID_00000080178936703592881350000017974650799347959192_" class="st1" d="M49.9,46.7h17c0,9.4-7.6,17-17,17
						c-9.4,0-17-7.6-17-17c0-4.2,1.4-8,4-11L49.9,46.7z"/>
					<path id="XMLID_00000058556542091548374660000014633270345444522146_" class="st0" d="M49.9,29.7v17l-13-11
						C40.2,32,44.7,29.7,49.9,29.7z"/>
					<g id="XMLID_00000165954622990327160290000013978750141816577425_">
						<path id="XMLID_00000142886016784642895120000008056501229645400971_" class="st2" d="M70.3,21.7c-2.5,0-4.5-2-4.5-4.5
							s2-4.5,4.5-4.5s4.5,2,4.5,4.5S72.7,21.7,70.3,21.7z M70.3,15c-1.3,0-2.3,1.1-2.3,2.3c0,1.3,1.1,2.3,2.3,2.3
							c1.3,0,2.2-1.3,2.2-2.5S71.4,15,70.3,15z"/>
					</g>
					<g id="XMLID_00000041287149852149010370000007973501344251116201_">
						<path id="XMLID_00000134217827848781250740000015072184102581535878_" class="st2" d="M70.3,15c-0.5,0-1.1-0.5-1.1-1.1V6
							c0-0.5,0.5-1.1,1.1-1.1c0.5,0,1.1,0.5,1.1,1.1V14C71.4,14.5,70.9,15,70.3,15z"/>
					</g>
					<g id="XMLID_00000024711704463890292750000012298927212843283637_">
						<path id="XMLID_00000080166304390426525200000006838723841875839904_" class="st2" d="M56.8,21.7c-2.5,0-4.5-2-4.5-4.5
							s2-4.5,4.5-4.5c2.5,0,4.5,2,4.5,4.5S59.1,21.7,56.8,21.7z M56.8,15c-1.3,0-2.3,1.1-2.3,2.3c0,1.3,1.1,2.3,2.3,2.3
							c1.3,0,2.3-1.1,2.3-2.3C58.9,15.9,57.9,15,56.8,15z"/>
					</g>
					<g id="XMLID_00000183927134818409294630000004254450569629730488_">
						<path id="XMLID_00000070115016102249041300000016353081989599370431_" class="st2" d="M56.8,15c-0.5,0-1.1-0.5-1.1-1.1V6
							c0-0.5,0.5-1.1,1.1-1.1c0.5,0,1.1,0.5,1.1,1.1V14C57.9,14.5,57.3,15,56.8,15z"/>
					</g>
					<g id="XMLID_00000179627009988706837690000002057301954725854391_">
						<path id="XMLID_00000015333364047438606490000012980446768603340674_" class="st2" d="M43.2,21.7c-2.5,0-4.5-2-4.5-4.5
							s2-4.5,4.5-4.5c2.5,0,4.5,2,4.5,4.5S45.6,21.7,43.2,21.7z M43.2,15c-1.3,0-2.3,1.1-2.3,2.3c0,1.3,1.1,2.3,2.3,2.3
							c1.3,0,2.2-1.3,2.2-2.5S44.3,15,43.2,15z"/>
					</g>
					<g id="XMLID_00000010279690768583835840000006015124597490502815_">
						<path id="XMLID_00000163038889911523162030000001777004940163739793_" class="st2" d="M43.2,15c-0.5,0-1.1-0.5-1.1-1.1V6
							c0-0.5,0.5-1.1,1.1-1.1c0.5,0,1.1,0.5,1.1,1.1V14C44.3,14.5,43.8,15,43.2,15z"/>
					</g>
					<g id="XMLID_00000170994631554240365560000010750309090605724568_">
						<path id="XMLID_00000122690335642220897800000005871506755184306834_" class="st2" d="M29.7,21.7c-2.5,0-4.5-2-4.5-4.5
							s2-4.5,4.5-4.5c2.5,0,4.5,2,4.5,4.5S32,21.7,29.7,21.7z M29.7,15c-1.3,0-2.3,1.1-2.3,2.3c0,1.3,1.1,2.3,2.3,2.3
							c1.3,0,2.3-1.1,2.3-2.3C31.8,15.9,30.8,15,29.7,15z"/>
					</g>
					<g id="XMLID_00000070107872121181629920000013343222781580944309_">
						<path id="XMLID_00000003818709392105138100000001674047585704078526_" class="st2" d="M29.7,15c-0.5,0-1.1-0.5-1.1-1.1V6
							c0-0.5,0.5-1.1,1.1-1.1c0.5,0,1.1,0.5,1.1,1.1V14C30.8,14.5,30.2,15,29.7,15z"/>
					</g>
					<g id="XMLID_00000038403457963698149350000009774173978565738925_">
						<path id="XMLID_00000114054638684660664290000001622582937694876298_" class="st2" d="M82.6,95.1H17.2c-0.5,0-1.1-0.5-1.1-1.1
							V9.3c0-0.5,0.5-1.1,1.1-1.1h65.6c0.5,0,1.1,0.5,1.1,1.1V94C83.9,94.7,83.3,95.1,82.6,95.1z M18.3,92.9h63.2V10.5H18.3V92.9z"
							/>
					</g>
					<g id="XMLID_00000119088939819229774210000008429589222302569617_">
						<path id="XMLID_00000003088809692694732350000009552243918750504589_" class="st2" d="M49.9,64.7c-9.9,0-18.1-8.1-18.1-18.1
							c0-4.3,1.4-8.5,4.3-11.7c3.4-4.2,8.5-6.3,13.7-6.3c9.9,0,18.1,8.1,18.1,18.1C68,56.6,59.8,64.7,49.9,64.7z M49.9,30.8
							c-4.7,0-9,2-12.1,5.6c-2.3,2.9-3.8,6.5-3.8,10.3c0,8.7,7,15.9,15.9,15.9c8.9,0,15.9-7,15.9-15.9S58.6,30.8,49.9,30.8z"/>
					</g>
					<g id="XMLID_00000029003764300505720150000006750117037104045756_">
						<path id="XMLID_00000009558630795544642480000016220108558406387368_" class="st2" d="M66.9,47.7h-17c-0.5,0-1.1-0.5-1.1-1.1
							v-17c0-0.5,0.5-1.1,1.1-1.1c0.5,0,1.1,0.5,1.1,1.1v15.9h15.9c0.5,0,1.1,0.5,1.1,1.1C68,47.2,67.4,47.7,66.9,47.7z"/>
					</g>
					<g id="XMLID_00000129177250382879087790000017073050128728323255_">
						<path id="XMLID_00000029016915468595790950000009249204609254834610_" class="st2" d="M49.9,47.7c-0.2,0-0.5,0-0.7-0.2l-13-11
							l0,0l0,0c-0.5-0.4-0.5-1.1,0-1.6c0.5-0.5,1.1-0.5,1.6,0l0,0l12.8,10.8c0.5,0.4,0.5,1.1,0.2,1.6C50.6,47.6,50.3,47.7,49.9,47.7
							z"/>
					</g>
					<g id="XMLID_00000051343386344578851880000002341349912246312891_">
						<path id="XMLID_00000138552369066165596030000014547064513621046710_" class="st2" d="M71.4,86h-43c-0.5,0-1.1-0.5-1.1-1.1
							c0-0.5,0.5-1.1,1.1-1.1h43c0.5,0,1.1,0.5,1.1,1.1C72.5,85.5,72,86,71.4,86z"/>
					</g>
					<g id="XMLID_00000139972403802757805260000016971350879503346852_">
						<path id="XMLID_00000070806641348716208330000001861020895600158854_" class="st2" d="M71.4,80.4h-43c-0.5,0-1.1-0.5-1.1-1.1
							c0-0.5,0.5-1.1,1.1-1.1h43c0.5,0,1.1,0.5,1.1,1.1C72.5,79.9,72,80.4,71.4,80.4z"/>
					</g>
					<g id="XMLID_00000014595877360636917880000006547119251770055323_">
						<path id="XMLID_00000107550463940583340030000018237485616854207663_" class="st2" d="M51,74.8H28.4c-0.5,0-1.1-0.5-1.1-1.1
							c0-0.5,0.5-1.1,1.1-1.1H51c0.5,0,1.1,0.5,1.1,1.1C52.1,74.3,51.7,74.8,51,74.8z"/>
					</g>
				</g>
			</g>
			<g id="Layer_1_00000097480082725539086590000008185568810319905444_">
			</g>
		</g>
	</g>
</g>
</svg>
