<?xml version="1.0" encoding="utf-8"?>
<!-- Generator: Adobe Illustrator 27.0.0, SVG Export Plug-In . SVG Version: 6.00 Build 0)  -->
<svg version="1.1" id="Layer_1" xmlns="http://www.w3.org/2000/svg" xmlns:xlink="http://www.w3.org/1999/xlink" x="0px" y="0px"
	 viewBox="0 0 100 100" style="enable-background:new 0 0 100 100;" xml:space="preserve">
<style type="text/css">
	.st0{opacity:0.91;fill:#004DCA;}
	.st1{fill:#004DCA;}
	.st2{fill:#FFFFFF;stroke:#004DCA;stroke-width:2.7181;stroke-linejoin:round;stroke-miterlimit:10;}
	.st3{fill:none;stroke:#004DCA;stroke-width:2.7181;stroke-miterlimit:10;}
	.st4{fill:none;stroke:#004DCA;stroke-width:2.7181;stroke-linejoin:round;stroke-miterlimit:10;}
</style>
<g>
	<g>
		<path id="XMLID_00000173878727017365385240000011832014994792294822_" class="st0" d="M49.9,17.6c17.9,0,32.4,14.5,32.4,32.4
			c0,17.9-14.5,32.4-32.4,32.4C32,82.4,17.4,67.9,17.4,50C17.4,32.1,32,17.6,49.9,17.6z"/>
		<g id="XMLID_00000171715157428423164250000001506769580293116814_">
			<path id="XMLID_00000125597658394212257860000006591734793857342639_" class="st1" d="M49.9,95c-12,0-23.2-4.7-31.8-13.2
				C11.8,75.4,7.4,67.2,5.7,58.4c-1.7-8.7-0.7-17.6,2.7-25.8c0.2-0.5,0.8-0.8,1.3-0.5c0.5,0.2,0.8,0.8,0.5,1.3
				c-6.7,16.1-3,34.4,9.2,46.8C36.2,97,63.3,97,80,80.3c0.3-0.3,1-0.3,1.5,0c0.3,0.3,0.3,1,0,1.5C73.3,90.3,61.9,95,49.9,95z"/>
		</g>
		<g id="XMLID_00000078028286583742621200000001295486256087917442_">
			<path id="XMLID_00000029734097189054800330000013551025671996876456_" class="st1" d="M91.3,65.7c-0.2,0-0.2,0-0.3,0
				c-0.5-0.2-0.8-0.8-0.7-1.3c5.5-15.6,1.5-32.9-10-44.6C63.6,3,36.5,3,19.8,19.7c-0.3,0.3-1,0.3-1.5,0c-0.3-0.3-0.3-1,0-1.5
				C26.8,9.7,38,5,50,5c12,0,23.2,4.7,31.8,13.2C88,24.4,92.2,31.9,94,40.5c1.8,8.2,1.2,16.7-1.5,24.6
				C92.2,65.4,91.7,65.7,91.3,65.7z"/>
		</g>
		<g id="XMLID_00000156584840911763262030000000349711974537868188_">
			<path id="XMLID_00000014611239554529221920000007371661798361049518_" class="st1" d="M81,91c-0.5,0-1-0.5-1-1v-7.9l-7.9-0.7
				c-0.5,0-1-0.5-1-1.2c0-0.5,0.5-1,1.2-1l8.9,0.7c0.5,0,1,0.5,1,1v8.9C82,90.5,81.5,91,81,91z"/>
		</g>
		<g id="XMLID_00000025424648854666063700000012253667617322765203_">
			<path id="XMLID_00000075164384417385070040000000108757935565780098_" class="st1" d="M27.8,20.7C27.8,20.7,27.6,20.7,27.8,20.7
				l-9-0.7c-0.5,0-1-0.5-1-1v-8.9c0-0.5,0.5-1,1-1c0.5,0,1,0.5,1,1v7.9l7.9,0.7c0.5,0,1,0.5,1,1.2C28.8,20.4,28.3,20.7,27.8,20.7z"
				/>
		</g>
		<g id="XMLID_00000054228026478870925680000009349112921868679824_">
			<path id="XMLID_00000047034878386488605310000011252794030695154854_" class="st1" d="M49.9,83.4c-18.4,0-33.4-15.1-33.4-33.4
				c0-18.4,15-33.4,33.4-33.4c18.4,0,33.4,15.1,33.4,33.4C83.3,68.4,68.4,83.4,49.9,83.4z M49.9,18.7c-17.2,0-31.4,14-31.4,31.4
				c0,17.4,14,31.4,31.4,31.4c17.4,0,31.3-14,31.3-31.4C81.1,32.8,67.3,18.7,49.9,18.7z"/>
		</g>
	</g>
	<g>
		<path class="st2" d="M63,67.6H36.8c-1.6,0-2.8-1.3-2.8-2.8V43.2c0-1.6,1.3-2.8,2.8-2.8H63c1.6,0,2.8,1.3,2.8,2.8v21.6
			C65.8,66.4,64.5,67.6,63,67.6z"/>
		<line class="st3" x1="33.8" y1="54.4" x2="65.7" y2="54.4"/>
		<g>
			<path class="st2" d="M59.7,36.7c-1.5,1.5-9.5,3.9-9.5,3.9s2.4-7.9,3.9-9.5s4-1.5,5.6,0S61.3,35.1,59.7,36.7z"/>
			<path class="st2" d="M40,36.7c1.5,1.5,9.5,3.9,9.5,3.9s-2.4-7.9-3.9-9.5c-1.5-1.5-4-1.5-5.6,0S38.5,35.1,40,36.7z"/>
		</g>
		<line class="st4" x1="49.9" y1="67.6" x2="49.9" y2="40.5"/>
	</g>
</g>
</svg>
