<?xml version="1.0" encoding="utf-8"?>
<!-- Generator: Adobe Illustrator 27.0.0, SVG Export Plug-In . SVG Version: 6.00 Build 0)  -->
<svg version="1.1" id="Layer_1" xmlns="http://www.w3.org/2000/svg" xmlns:xlink="http://www.w3.org/1999/xlink" x="0px" y="0px"
	 viewBox="0 0 100 100" style="enable-background:new 0 0 100 100;" xml:space="preserve">
<style type="text/css">
	.st0{opacity:0.91;fill:#004DCA;}
	.st1{fill:#FFFFFF;}
	.st2{fill:#004DCA;}
</style>
<g>
	<path id="XMLID_10075_" class="st0" d="M71.9,67.6l9.3,17.4l-14.7-2.8l-5.9,13.5L50,75.2C58.3,75.2,66,72.5,71.9,67.6z"/>
	<path id="XMLID_10077_" class="st1" d="M50,5.7c19.3,0,34.9,15.6,34.9,34.9c0,19.3-15.6,34.9-34.9,34.9
		c-19.1,0-34.9-15.4-34.9-34.9C15.3,21.3,30.9,5.7,50,5.7z"/>
	<path id="XMLID_10082_" class="st0" d="M50,17.4c12.8,0,23.2,10.4,23.2,23.2c0,12.8-10.4,23.2-23.2,23.2S26.8,53.3,26.8,40.5
		C26.8,27.7,37.2,17.4,50,17.4z"/>
	<path id="XMLID_10088_" class="st0" d="M50,75.2L39.4,95.8l-5.9-13.5l-14.7,2.8l9.3-17.4C34.2,72.5,41.8,75.2,50,75.2z"/>
	<g id="XMLID_10095_">
		<path id="XMLID_10096_" class="st2" d="M60.6,96.9c-0.4,0-0.7-0.2-1.1-0.6L50,77.8l-9.5,18.6c-0.2,0.4-0.6,0.6-1.1,0.6
			c-0.4,0-0.9-0.4-1.1-0.7l-5.6-12.8L19,86c-0.4,0-0.9,0-1.1-0.4c-0.2-0.4-0.4-0.9,0-1.3l9.3-17.4c0.4-0.6,0.6-0.3,1.2-0.1
			c0.6,0.4,1.1,0.5,0.9,1L21.1,83l12.2-2.4c0.6-0.2,1.1,0.2,1.3,0.7l5,11.3l9.5-18.4c0.2-0.4,0.5,0.1,1.1,0.1c0.6,0,0.8-0.5,1.2-0.1
			l9.5,18.4l5-11.3c0.2-0.6,0.7-0.7,1.3-0.7L79.3,83l-8.2-15.2c-0.4-0.6,0-1.3,0.6-1.5c0.6-0.4,1.3,0,1.5,0.6l9.3,17.4
			c0.2,0.4,0.2,0.9,0,1.3c-0.2,0.4-0.7,0.6-1.1,0.4l-13.7-2.6l-5.6,12.8C61.5,96.8,61.1,96.9,60.6,96.9L60.6,96.9z"/>
	</g>
	<g id="XMLID_10097_">
		<path id="XMLID_10098_" class="st2" d="M50,76.5c-8.2,0-16.1-2.8-22.6-8C18.8,61.7,14,51.5,14,40.5c0-19.9,16.1-36,36-36
			s36,16.1,36,36c0,10.9-4.8,21.1-13.4,28C66.3,73.6,58.3,76.5,50,76.5z M50,7C31.4,7,16.4,22,16.4,40.5c0,10.2,4.6,19.7,12.4,26.2
			l0,0c5.9,4.8,13.5,7.4,21.1,7.4c7.6,0,15.2-2.6,21.2-7.4c8-6.5,12.4-16,12.4-26.2C83.8,22,68.6,7,50,7z"/>
	</g>
	<g id="XMLID_10101_">
		<path id="XMLID_10102_" class="st2" d="M50,64.9c-13.4,0-24.3-10.9-24.3-24.3c0-13.4,10.9-24.3,24.3-24.3
			c13.4,0,24.3,10.9,24.3,24.3C74.3,53.9,63.5,64.9,50,64.9z M50,18.5c-12.1,0-22.1,9.8-22.1,22.1S37.8,62.6,50,62.6
			s22.1-9.8,22.1-22.1S62.2,18.5,50,18.5z"/>
	</g>
	<polygon id="XMLID_00000049200339138404298600000011585791501723444128_" class="st1" points="61.7,37.9 54.5,42.9 57.2,51.3 
		50.2,46.3 43,51.3 45.7,42.9 38.7,37.9 47.4,37.9 50.2,29.4 52.8,37.9 	"/>
	<g id="XMLID_00000062910310500308892710000013875230694618263992_">
		<path id="XMLID_00000037683759917353262710000000738975348250125985_" class="st1" d="M57.2,52.6c-0.2,0-0.6,0-0.7-0.2L50,47.8
			l-6.5,4.6c-0.4,0.4-0.9,0.4-1.3,0c-0.4-0.4-0.6-0.7-0.4-1.3l2.4-7.6l-6.5-4.6c-0.4-0.4-0.6-0.7-0.4-1.3c0.2-0.6,0.6-0.7,1.1-0.7h8
			l2.4-7.6c0.2-0.6,0.6-0.7,1.1-0.7c0.6,0,0.9,0.4,1.1,0.7l2.4,7.6h8c0.6,0,0.9,0.4,1.1,0.7c0.2,0.6,0,0.9-0.4,1.3l-6.5,4.6l2.4,7.6
			c0.2,0.6,0,0.9-0.4,1.3C57.8,52.4,57.4,52.6,57.2,52.6z M50.2,45c0.2,0,0.6,0,0.7,0.2l4.3,3.2l-1.7-5c-0.2-0.6,0-0.9,0.4-1.3
			l4.3-3.2H53c-0.6,0-0.9-0.4-1.1-0.7l-1.7-5l-1.7,5c-0.2,0.6-0.6,0.7-1.1,0.7h-5.2l4.3,3.2c0.4,0.4,0.6,0.7,0.4,1.3l-1.7,5l4.3-3.2
			C49.6,45.2,49.8,45,50.2,45z"/>
	</g>
</g>
</svg>
