<?xml version="1.0" encoding="utf-8"?>
<!-- Generator: Adobe Illustrator 27.0.0, SVG Export Plug-In . SVG Version: 6.00 Build 0)  -->
<svg version="1.1" id="Layer_1" xmlns="http://www.w3.org/2000/svg" xmlns:xlink="http://www.w3.org/1999/xlink" x="0px" y="0px"
	 viewBox="0 0 100 100" style="enable-background:new 0 0 100 100;" xml:space="preserve">
<style type="text/css">
	.st0{fill:#FFFFFF;}
	.st1{opacity:0.91;}
	.st2{fill:#004DCA;}
</style>
<g>
	<g>
		<g>
			<g id="_x38_5_x2C__Chat_x2C__Callout_x2C__Bubble_x2C__Message_00000048466465897886328940000002070136788518164384_">
				<g>
					<path id="XMLID_00000072988451488448601160000013774775662423176325_" class="st0" d="M90.5,60H74.6
						c0.7-19.6-16.1-34.7-35-32.7C42.9,17.1,52.5,9.6,63.8,9.6c14,0,25.2,11.3,25.2,25.2c0,7-2.8,13.4-7.5,17.9L90.5,60z"/>
					<g id="XMLID_00000155842994572906998990000014202915520094868355_" class="st1">
						<g>
							<path id="XMLID_00000168839041540844086080000005807641546741587113_" class="st2" d="M42.9,90.6H9.5l11.1-9.2
								c-5.8-5.8-9.3-13.7-9.3-22.5c0-17.5,14.2-31.7,31.7-31.7c17.3,0,31.6,14.1,31.6,31.7C74.6,76.4,60.4,90.6,42.9,90.6z"/>
						</g>
					</g>
					<path id="XMLID_00000075848343437826733530000011685013801728139159_" class="st0" d="M57,46.5c1.4,0,2.7,1.1,2.7,2.7
						c0,0.7-0.3,1.4-0.8,1.8c-0.4,0.4-1.1,0.7-1.8,0.7H28.8c-1.4,0-2.7-1.1-2.7-2.7c0-0.7,0.3-1.4,0.7-1.8c0.4-0.4,1.1-0.8,1.8-0.8
						L57,46.5L57,46.5z"/>
					<path id="XMLID_00000105396235870563618170000002454687846471349161_" class="st0" d="M57,57.1c1.4,0,2.7,1.1,2.7,2.7
						c0,0.7-0.3,1.4-0.8,1.8c-0.4,0.4-1.1,0.7-1.8,0.7H28.8c-1.4,0-2.7-1.1-2.7-2.7c0-0.7,0.3-1.4,0.7-1.8c0.4-0.4,1.1-0.8,1.8-0.8
						L57,57.1L57,57.1z"/>
					<path id="XMLID_00000058547968912655382370000012409491084868419464_" class="st0" d="M57,67.7c1.4,0,2.7,1.1,2.7,2.7
						c0,0.7-0.3,1.4-0.8,1.8c-0.4,0.4-1.1,0.7-1.8,0.7H28.8c-1.4,0-2.7-1.1-2.7-2.7c0-0.7,0.3-1.4,0.7-1.8c0.4-0.4,1.1-0.8,1.8-0.8
						L57,67.7L57,67.7z"/>
					<g id="XMLID_00000057844897827847634020000012167415386053618310_">
						<path id="XMLID_00000086674178716878008940000018101238634554222228_" class="st2" d="M90.5,61H74.6c-0.4,0-0.8-0.4-0.8-0.8
							c0-0.4,0.3-1,0.8-1H88l-7-5.8c-0.1-0.1-0.3-0.4-0.3-0.7c0-0.3,0.1-0.4,0.3-0.7c4.7-4.7,7.2-10.7,7.2-17.3
							c0-13.4-11-24.4-24.4-24.4c-10.7,0-20.2,6.9-23.3,17.2c-0.1,0.4-0.7,0.7-1.1,0.6c-0.4-0.1-0.7-0.7-0.6-1.1
							c1.6-5.2,4.9-9.9,9.3-13.2c4.5-3.4,10-5.2,15.6-5.2C78.1,8.5,90,20.2,90,34.7c0,6.8-2.5,13-7,17.9l8.2,6.8
							c0.3,0.3,0.4,0.6,0.3,1C91.1,60.7,90.8,61,90.5,61z"/>
					</g>
					<g id="XMLID_00000141415881879889714950000016387012304348981658_">
						<path id="XMLID_00000119083440201742414890000018039333645658482566_" class="st2" d="M42.9,91.5H9.5c-0.4,0-0.7-0.3-0.8-0.6
							c-0.1-0.3,0-0.7,0.3-1l10.4-8.6c-5.8-6.1-8.9-14-8.9-22.4c0-8.2,3-15.9,8.5-21.8c5.4-5.9,12.8-9.7,20.7-10.6
							c1.1-0.1,2.3-0.1,3.4-0.1c18,0,32.6,14.7,32.6,32.6c0,0.4,0,0.8,0,1.3l0,0c-0.3,8.5-3.8,16.3-10,22.1
							C59.4,88.2,51.4,91.5,42.9,91.5z M11.9,89.6h31c16.6,0,30.2-13,30.9-29.6c0-0.4,0-0.8,0-1.3c0-17.1-13.8-30.9-30.9-30.9
							c-1.1,0-2.1,0-3.2,0.1C23.9,29.6,12,42.8,12,58.8c0,8.3,3.2,16.1,9.2,21.8c0.1,0.1,0.3,0.4,0.3,0.7c0,0.3-0.1,0.4-0.3,0.7
							L11.9,89.6z"/>
					</g>
					<g id="XMLID_00000155112077829789248080000001195861171641414334_">
						<path id="XMLID_00000036952933312340574810000000261746222556452283_" class="st2" d="M57,63.3H28.8c-2,0-3.5-1.5-3.5-3.5
							c0-1,0.4-1.8,1-2.5c0.7-0.7,1.6-1,2.5-1H57c2,0,3.5,1.6,3.5,3.5c0,1-0.4,1.8-1,2.5C58.8,62.9,58,63.3,57,63.3z M28.8,57.9
							c-0.4,0-0.8,0.1-1.3,0.6c-0.3,0.3-0.6,0.8-0.6,1.3c0,1,0.8,1.8,1.8,1.8H57c0.4,0,0.8-0.1,1.3-0.6c0.3-0.3,0.6-0.8,0.6-1.3
							c0-1-0.8-1.8-1.8-1.8H28.8z"/>
					</g>
					<g id="XMLID_00000103979478167992153580000006684935622204236983_">
						<path id="XMLID_00000137835677748105983570000006100077065696556986_" class="st2" d="M57,52.7H28.8c-2,0-3.5-1.6-3.5-3.5
							c0-1,0.4-1.8,1-2.5c0.7-0.7,1.6-1,2.5-1H57c2,0,3.5,1.6,3.5,3.5c0,1-0.4,1.8-1,2.5C58.8,52.3,58,52.7,57,52.7z M28.8,47.4
							c-0.4,0-0.8,0.1-1.3,0.6c-0.3,0.3-0.6,0.8-0.6,1.3c0,1,0.8,1.8,1.8,1.8H57c0.4,0,0.8-0.1,1.3-0.6c0.3-0.3,0.6-0.8,0.6-1.3
							c0-1-0.8-1.8-1.8-1.8H28.8z"/>
					</g>
					<g id="XMLID_00000011004892110320903910000005266446636415221910_">
						<path id="XMLID_00000114765480451965221770000015266108668452591254_" class="st2" d="M57,73.9H28.8c-2,0-3.5-1.5-3.5-3.5
							c0-1,0.4-1.8,1-2.5c0.7-0.7,1.6-1,2.5-1H57c2,0,3.5,1.6,3.5,3.5c0,1-0.4,1.8-1,2.5C58.8,73.4,58,73.9,57,73.9z M28.8,68.5
							c-0.4,0-0.8,0.1-1.3,0.6c-0.3,0.3-0.6,0.8-0.6,1.3c0,1,0.8,1.8,1.8,1.8H57c0.4,0,0.8-0.1,1.3-0.6c0.3-0.3,0.6-0.8,0.6-1.3
							c0-1-0.8-1.8-1.8-1.8H28.8z"/>
					</g>
				</g>
			</g>
			<g id="Layer_1_00000120532931658553618170000015479258850600544914_">
			</g>
		</g>
	</g>
</g>
</svg>
